<svg xmlns="http://www.w3.org/2000/svg" viewBox="0 0 64 64" role="img" aria-label="WebAuthn Server Buildkit logo">
  <defs>
    <linearGradient id="wsbk-grad" x1="0" y1="0" x2="64" y2="64" gradientUnits="userSpaceOnUse">
      <stop offset="0" stop-color="#6366f1"/>
      <stop offset="1" stop-color="#4338ca"/>
    </linearGradient>
  </defs>
  <!-- Shield -->
  <path fill="url(#wsbk-grad)" d="M32 3 8 12v18c0 14.4 9.9 25.7 24 31 14.1-5.3 24-16.6 24-31V12L32 3z"/>
  <!-- Fingerprint / passkey lines -->
  <g fill="none" stroke="#ffffff" stroke-width="2.6" stroke-linecap="round">
    <path d="M32 20c-6.6 0-12 5.4-12 12v6" opacity="0.95"/>
    <path d="M32 26c-3.3 0-6 2.7-6 6v8" opacity="0.95"/>
    <path d="M32 32v9" opacity="0.95"/>
    <path d="M38 32c0-3.3-2.7-6-6-6" opacity="0.95"/>
    <path d="M44 33v-1c0-6.6-5.4-12-12-12" opacity="0.75"/>
  </g>
  <!-- Check / verified dot -->
  <circle cx="32" cy="45" r="2.4" fill="#a5b4fc"/>
</svg>
