<svg xmlns="http://www.w3.org/2000/svg" viewBox="0 0 1200 630" role="img" aria-label="webauthn-server-buildkit social card">
  <defs>
    <linearGradient id="bg" x1="0" y1="0" x2="1200" y2="630" gradientUnits="userSpaceOnUse">
      <stop offset="0" stop-color="#0f172a"/>
      <stop offset="1" stop-color="#1e1b4b"/>
    </linearGradient>
    <linearGradient id="shield" x1="0" y1="0" x2="220" y2="260" gradientUnits="userSpaceOnUse">
      <stop offset="0" stop-color="#818cf8"/>
      <stop offset="1" stop-color="#4338ca"/>
    </linearGradient>
  </defs>
  <rect width="1200" height="630" fill="url(#bg)"/>
  <!-- accent strip -->
  <rect x="0" y="0" width="1200" height="8" fill="#6366f1"/>
  <!-- Shield emblem -->
  <g transform="translate(96 196)">
    <path fill="url(#shield)" d="M110 0 0 42v82c0 66 45 117 110 142 65-25 110-76 110-142V42L110 0z"/>
    <g fill="none" stroke="#ffffff" stroke-width="9" stroke-linecap="round">
      <path d="M110 78c-22 0-40 18-40 40v22"/>
      <path d="M110 98c-11 0-20 9-20 20v28"/>
      <path d="M110 118v32"/>
      <path d="M130 118c0-11-9-20-20-20"/>
      <path d="M150 120v-2c0-22-18-40-40-40" opacity="0.7"/>
    </g>
    <circle cx="110" cy="162" r="8" fill="#c7d2fe"/>
  </g>
  <!-- Text -->
  <text x="392" y="262" font-family="ui-sans-serif, system-ui, -apple-system, Segoe UI, Roboto, Arial, sans-serif" font-size="68" font-weight="800" fill="#ffffff">webauthn-server-</text>
  <text x="392" y="338" font-family="ui-sans-serif, system-ui, -apple-system, Segoe UI, Roboto, Arial, sans-serif" font-size="68" font-weight="800" fill="#a5b4fc">buildkit</text>
  <text x="394" y="406" font-family="ui-sans-serif, system-ui, -apple-system, Segoe UI, Roboto, Arial, sans-serif" font-size="33" font-weight="500" fill="#cbd5e1">Framework-independent WebAuthn / FIDO2 / passkeys</text>
  <text x="394" y="450" font-family="ui-sans-serif, system-ui, -apple-system, Segoe UI, Roboto, Arial, sans-serif" font-size="33" font-weight="500" fill="#cbd5e1">server library for TypeScript — secure by default.</text>
  <text x="394" y="528" font-family="ui-monospace, SFMono-Regular, Menlo, monospace" font-size="27" fill="#818cf8">npm i webauthn-server-buildkit</text>
  <text x="394" y="572" font-family="ui-sans-serif, system-ui, Arial, sans-serif" font-size="25" fill="#64748b">by Ahsan Mahmood · aoneahsan.com · MIT</text>
</svg>
